<mxfile host="app.diagrams.net" agent="Mozilla/5.0 (Windows NT 10.0; Win64; x64) AppleWebKit/537.36 (KHTML, like Gecko) Chrome/135.0.0.0 Safari/537.36" version="24.8.4" pages="3">
  <diagram name="Infrastructure-Réseau" id="94Gl2Tlmgv-evAe8zs64">
    <mxGraphModel grid="1" page="1" gridSize="10" guides="1" tooltips="1" connect="1" arrows="1" fold="1" pageScale="1" pageWidth="827" pageHeight="1169" math="0" shadow="0">
      <root>
        <mxCell id="0" />
        <mxCell id="1" parent="0" />
        <mxCell id="CWwyvx4FOUg666QDuLg1-1" value="Cloud AWS" style="points=[[0,0],[0.25,0],[0.5,0],[0.75,0],[1,0],[1,0.25],[1,0.5],[1,0.75],[1,1],[0.75,1],[0.5,1],[0.25,1],[0,1],[0,0.75],[0,0.5],[0,0.25]];outlineConnect=0;gradientColor=none;html=1;whiteSpace=wrap;fontSize=12;fontStyle=0;container=1;pointerEvents=0;collapsible=0;recursiveResize=0;shape=mxgraph.aws4.group;grIcon=mxgraph.aws4.group_aws_cloud;strokeColor=#232F3E;fillColor=none;verticalAlign=top;align=left;spacingLeft=30;fontColor=#232F3E;dashed=0;strokeWidth=2;" vertex="1" parent="1">
          <mxGeometry x="-450" y="270" width="920" height="640" as="geometry" />
        </mxCell>
        <mxCell id="CWwyvx4FOUg666QDuLg1-2" value="us-east" style="points=[[0,0],[0.25,0],[0.5,0],[0.75,0],[1,0],[1,0.25],[1,0.5],[1,0.75],[1,1],[0.75,1],[0.5,1],[0.25,1],[0,1],[0,0.75],[0,0.5],[0,0.25]];outlineConnect=0;gradientColor=none;html=1;whiteSpace=wrap;fontSize=12;fontStyle=0;container=1;pointerEvents=0;collapsible=0;recursiveResize=0;shape=mxgraph.aws4.group;grIcon=mxgraph.aws4.group_region;strokeColor=#00A4A6;fillColor=none;verticalAlign=top;align=left;spacingLeft=30;fontColor=#147EBA;dashed=1;strokeWidth=2;" vertex="1" parent="CWwyvx4FOUg666QDuLg1-1">
          <mxGeometry x="40" y="40" width="830" height="570" as="geometry" />
        </mxCell>
        <mxCell id="CWwyvx4FOUg666QDuLg1-3" value="&lt;b style=&quot;color: rgb(140, 79, 255); font-size: 14px;&quot;&gt;VPC : 10.0.0.0/16&lt;/b&gt;" style="points=[[0,0],[0.25,0],[0.5,0],[0.75,0],[1,0],[1,0.25],[1,0.5],[1,0.75],[1,1],[0.75,1],[0.5,1],[0.25,1],[0,1],[0,0.75],[0,0.5],[0,0.25]];outlineConnect=0;gradientColor=none;html=1;whiteSpace=wrap;fontSize=12;fontStyle=0;container=1;pointerEvents=0;collapsible=0;recursiveResize=0;shape=mxgraph.aws4.group;grIcon=mxgraph.aws4.group_vpc2;strokeColor=#8C4FFF;fillColor=none;verticalAlign=top;align=left;spacingLeft=30;fontColor=#AAB7B8;dashed=0;strokeWidth=2;" vertex="1" parent="CWwyvx4FOUg666QDuLg1-2">
          <mxGeometry x="40" y="60" width="660" height="480" as="geometry" />
        </mxCell>
        <mxCell id="CWwyvx4FOUg666QDuLg1-5" value="10.0.0.0/24" style="points=[[0,0],[0.25,0],[0.5,0],[0.75,0],[1,0],[1,0.25],[1,0.5],[1,0.75],[1,1],[0.75,1],[0.5,1],[0.25,1],[0,1],[0,0.75],[0,0.5],[0,0.25]];outlineConnect=0;gradientColor=none;html=1;whiteSpace=wrap;fontSize=12;fontStyle=0;container=1;pointerEvents=0;collapsible=0;recursiveResize=0;shape=mxgraph.aws4.group;grIcon=mxgraph.aws4.group_security_group;grStroke=0;strokeColor=#7AA116;fillColor=#F2F6E8;verticalAlign=top;align=left;spacingLeft=30;fontColor=#248814;dashed=0;strokeWidth=2;" vertex="1" parent="CWwyvx4FOUg666QDuLg1-3">
          <mxGeometry x="290" y="90" width="145" height="380" as="geometry" />
        </mxCell>
        <mxCell id="CWwyvx4FOUg666QDuLg1-6" value="&lt;b&gt;&lt;font style=&quot;font-size: 13px;&quot;&gt;http-access&lt;/font&gt;&lt;/b&gt;" style="fillColor=none;strokeColor=#DD3522;verticalAlign=top;fontStyle=0;fontColor=#DD3522;whiteSpace=wrap;html=1;" vertex="1" parent="CWwyvx4FOUg666QDuLg1-5">
          <mxGeometry x="20" y="40" width="90" height="90" as="geometry" />
        </mxCell>
        <mxCell id="CWwyvx4FOUg666QDuLg1-7" value="&lt;font style=&quot;color: rgb(255, 128, 0);&quot;&gt;Serveur nginx&lt;/font&gt;" style="sketch=0;points=[[0,0,0],[0.25,0,0],[0.5,0,0],[0.75,0,0],[1,0,0],[0,1,0],[0.25,1,0],[0.5,1,0],[0.75,1,0],[1,1,0],[0,0.25,0],[0,0.5,0],[0,0.75,0],[1,0.25,0],[1,0.5,0],[1,0.75,0]];outlineConnect=0;fontColor=#232F3E;fillColor=#ED7100;strokeColor=#ffffff;dashed=0;verticalLabelPosition=bottom;verticalAlign=top;align=center;html=1;fontSize=12;fontStyle=0;aspect=fixed;shape=mxgraph.aws4.resourceIcon;resIcon=mxgraph.aws4.compute;" vertex="1" parent="CWwyvx4FOUg666QDuLg1-5">
          <mxGeometry x="50" y="70" width="30" height="30" as="geometry" />
        </mxCell>
        <mxCell id="CWwyvx4FOUg666QDuLg1-8" value="10.0.1.0/24" style="points=[[0,0],[0.25,0],[0.5,0],[0.75,0],[1,0],[1,0.25],[1,0.5],[1,0.75],[1,1],[0.75,1],[0.5,1],[0.25,1],[0,1],[0,0.75],[0,0.5],[0,0.25]];outlineConnect=0;gradientColor=none;html=1;whiteSpace=wrap;fontSize=12;fontStyle=0;container=1;pointerEvents=0;collapsible=0;recursiveResize=0;shape=mxgraph.aws4.group;grIcon=mxgraph.aws4.group_security_group;grStroke=0;strokeColor=#00A4A6;fillColor=#E6F6F7;verticalAlign=top;align=left;spacingLeft=30;fontColor=#147EBA;dashed=0;" vertex="1" parent="CWwyvx4FOUg666QDuLg1-3">
          <mxGeometry x="290" y="260" width="145" height="215" as="geometry" />
        </mxCell>
        <mxCell id="CWwyvx4FOUg666QDuLg1-4" value="us-east-1a" style="fillColor=none;strokeColor=#147EBA;dashed=1;verticalAlign=top;fontStyle=0;fontColor=#147EBA;whiteSpace=wrap;html=1;strokeWidth=2;" vertex="1" parent="CWwyvx4FOUg666QDuLg1-8">
          <mxGeometry x="-15" y="-285" width="160" height="500" as="geometry" />
        </mxCell>
      </root>
    </mxGraphModel>
  </diagram>
  <diagram id="CDr2vQjaK10Peb54q4hv" name="Infrastructure-Réseau-2">
    <mxGraphModel dx="2547" dy="1182" grid="1" gridSize="10" guides="1" tooltips="1" connect="1" arrows="1" fold="1" page="1" pageScale="1" pageWidth="827" pageHeight="1169" math="0" shadow="0">
      <root>
        <mxCell id="0" />
        <mxCell id="1" parent="0" />
        <mxCell id="HDjwXl0yurooxQBujUng-1" value="Cloud AWS" style="points=[[0,0],[0.25,0],[0.5,0],[0.75,0],[1,0],[1,0.25],[1,0.5],[1,0.75],[1,1],[0.75,1],[0.5,1],[0.25,1],[0,1],[0,0.75],[0,0.5],[0,0.25]];outlineConnect=0;gradientColor=none;html=1;whiteSpace=wrap;fontSize=12;fontStyle=0;container=1;pointerEvents=0;collapsible=0;recursiveResize=0;shape=mxgraph.aws4.group;grIcon=mxgraph.aws4.group_aws_cloud;strokeColor=#232F3E;fillColor=none;verticalAlign=top;align=left;spacingLeft=30;fontColor=#232F3E;dashed=0;strokeWidth=2;" vertex="1" parent="1">
          <mxGeometry x="-674" y="220" width="520" height="640" as="geometry" />
        </mxCell>
        <mxCell id="HDjwXl0yurooxQBujUng-2" value="us-east" style="points=[[0,0],[0.25,0],[0.5,0],[0.75,0],[1,0],[1,0.25],[1,0.5],[1,0.75],[1,1],[0.75,1],[0.5,1],[0.25,1],[0,1],[0,0.75],[0,0.5],[0,0.25]];outlineConnect=0;gradientColor=none;html=1;whiteSpace=wrap;fontSize=12;fontStyle=0;container=1;pointerEvents=0;collapsible=0;recursiveResize=0;shape=mxgraph.aws4.group;grIcon=mxgraph.aws4.group_region;strokeColor=#00A4A6;fillColor=none;verticalAlign=top;align=left;spacingLeft=30;fontColor=#147EBA;dashed=1;strokeWidth=2;" vertex="1" parent="HDjwXl0yurooxQBujUng-1">
          <mxGeometry x="40" y="40" width="440" height="570" as="geometry" />
        </mxCell>
        <mxCell id="HDjwXl0yurooxQBujUng-3" value="&lt;b style=&quot;color: rgb(140, 79, 255); font-size: 14px;&quot;&gt;VPC : 10.0.0.0/16&lt;/b&gt;" style="points=[[0,0],[0.25,0],[0.5,0],[0.75,0],[1,0],[1,0.25],[1,0.5],[1,0.75],[1,1],[0.75,1],[0.5,1],[0.25,1],[0,1],[0,0.75],[0,0.5],[0,0.25]];outlineConnect=0;gradientColor=none;html=1;whiteSpace=wrap;fontSize=12;fontStyle=0;container=1;pointerEvents=0;collapsible=0;recursiveResize=0;shape=mxgraph.aws4.group;grIcon=mxgraph.aws4.group_vpc2;strokeColor=#8C4FFF;fillColor=none;verticalAlign=top;align=left;spacingLeft=30;fontColor=#AAB7B8;dashed=0;strokeWidth=2;" vertex="1" parent="HDjwXl0yurooxQBujUng-2">
          <mxGeometry x="40" y="60" width="360" height="480" as="geometry" />
        </mxCell>
        <mxCell id="HDjwXl0yurooxQBujUng-4" value="us-east-1a" style="fillColor=none;strokeColor=#147EBA;dashed=1;verticalAlign=top;fontStyle=0;fontColor=#147EBA;whiteSpace=wrap;html=1;strokeWidth=2;" vertex="1" parent="HDjwXl0yurooxQBujUng-3">
          <mxGeometry x="100" y="-40" width="160" height="500" as="geometry" />
        </mxCell>
        <mxCell id="HDjwXl0yurooxQBujUng-5" value="10.0.0.0/24" style="points=[[0,0],[0.25,0],[0.5,0],[0.75,0],[1,0],[1,0.25],[1,0.5],[1,0.75],[1,1],[0.75,1],[0.5,1],[0.25,1],[0,1],[0,0.75],[0,0.5],[0,0.25]];outlineConnect=0;gradientColor=none;html=1;whiteSpace=wrap;fontSize=12;fontStyle=0;container=1;pointerEvents=0;collapsible=0;recursiveResize=0;shape=mxgraph.aws4.group;grIcon=mxgraph.aws4.group_security_group;grStroke=0;strokeColor=#7AA116;fillColor=#F2F6E8;verticalAlign=top;align=left;spacingLeft=30;fontColor=#248814;dashed=0;strokeWidth=2;" vertex="1" parent="HDjwXl0yurooxQBujUng-3">
          <mxGeometry x="115" y="90" width="130" height="140" as="geometry" />
        </mxCell>
        <mxCell id="HDjwXl0yurooxQBujUng-6" value="&lt;b&gt;&lt;font style=&quot;font-size: 13px;&quot;&gt;http-access&lt;/font&gt;&lt;/b&gt;" style="fillColor=none;strokeColor=#DD3522;verticalAlign=top;fontStyle=0;fontColor=#DD3522;whiteSpace=wrap;html=1;" vertex="1" parent="HDjwXl0yurooxQBujUng-5">
          <mxGeometry x="20" y="30" width="90" height="100" as="geometry" />
        </mxCell>
        <mxCell id="HDjwXl0yurooxQBujUng-7" value="&lt;font color=&quot;#ff8000&quot;&gt;Application&lt;/font&gt;&lt;div&gt;&lt;font color=&quot;#ff8000&quot;&gt;&lt;i&gt;fullstack&lt;/i&gt;&lt;/font&gt;&lt;/div&gt;" style="sketch=0;points=[[0,0,0],[0.25,0,0],[0.5,0,0],[0.75,0,0],[1,0,0],[0,1,0],[0.25,1,0],[0.5,1,0],[0.75,1,0],[1,1,0],[0,0.25,0],[0,0.5,0],[0,0.75,0],[1,0.25,0],[1,0.5,0],[1,0.75,0]];outlineConnect=0;fontColor=#232F3E;fillColor=#ED7100;strokeColor=#ffffff;dashed=0;verticalLabelPosition=bottom;verticalAlign=top;align=right;html=1;fontSize=12;fontStyle=0;aspect=fixed;shape=mxgraph.aws4.resourceIcon;resIcon=mxgraph.aws4.compute;labelPosition=right;" vertex="1" parent="HDjwXl0yurooxQBujUng-5">
          <mxGeometry x="32" y="60" width="30" height="30" as="geometry" />
        </mxCell>
        <mxCell id="HDjwXl0yurooxQBujUng-8" value="" style="shape=image;html=1;verticalAlign=top;verticalLabelPosition=bottom;labelBackgroundColor=#ffffff;imageAspect=0;aspect=fixed;image=https://cdn0.iconfinder.com/data/icons/social-media-2104/24/social_media_social_media_logo_docker-128.png" vertex="1" parent="HDjwXl0yurooxQBujUng-5">
          <mxGeometry x="67" y="56" width="38" height="38" as="geometry" />
        </mxCell>
        <mxCell id="HDjwXl0yurooxQBujUng-9" value="10.0.1.0/24" style="points=[[0,0],[0.25,0],[0.5,0],[0.75,0],[1,0],[1,0.25],[1,0.5],[1,0.75],[1,1],[0.75,1],[0.5,1],[0.25,1],[0,1],[0,0.75],[0,0.5],[0,0.25]];outlineConnect=0;gradientColor=none;html=1;whiteSpace=wrap;fontSize=12;fontStyle=0;container=1;pointerEvents=0;collapsible=0;recursiveResize=0;shape=mxgraph.aws4.group;grIcon=mxgraph.aws4.group_security_group;grStroke=0;strokeColor=#00A4A6;fillColor=#E6F6F7;verticalAlign=top;align=left;spacingLeft=30;fontColor=#147EBA;dashed=0;" vertex="1" parent="HDjwXl0yurooxQBujUng-3">
          <mxGeometry x="115" y="260" width="130" height="130" as="geometry" />
        </mxCell>
        <mxCell id="HDjwXl0yurooxQBujUng-10" value="" style="sketch=0;outlineConnect=0;fontColor=#232F3E;gradientColor=none;fillColor=#8C4FFF;strokeColor=none;dashed=0;verticalLabelPosition=bottom;verticalAlign=top;align=center;html=1;fontSize=12;fontStyle=0;aspect=fixed;pointerEvents=1;shape=mxgraph.aws4.internet_gateway;" vertex="1" parent="HDjwXl0yurooxQBujUng-3">
          <mxGeometry x="300" y="-20" width="40" height="40" as="geometry" />
        </mxCell>
      </root>
    </mxGraphModel>
  </diagram>
  <diagram id="LPVJtK9rj6MnDUY9xsZE" name="Infrastructure-Docker">
    <mxGraphModel dx="1720" dy="1182" grid="1" gridSize="10" guides="1" tooltips="1" connect="1" arrows="1" fold="1" page="1" pageScale="1" pageWidth="827" pageHeight="1169" math="0" shadow="0">
      <root>
        <mxCell id="0" />
        <mxCell id="1" parent="0" />
        <mxCell id="RqQAhdTTkDdNJMIUkBv4-1" style="edgeStyle=none;curved=1;rounded=0;orthogonalLoop=1;jettySize=auto;html=1;exitX=0.5;exitY=0;exitDx=0;exitDy=0;entryX=0;entryY=0.75;entryDx=0;entryDy=0;fontSize=12;startSize=8;endSize=8;startArrow=classic;startFill=0;endArrow=none;" edge="1" parent="1" source="RqQAhdTTkDdNJMIUkBv4-3" target="RqQAhdTTkDdNJMIUkBv4-10">
          <mxGeometry relative="1" as="geometry" />
        </mxCell>
        <mxCell id="RqQAhdTTkDdNJMIUkBv4-2" value="jellyfin.mydomain.com" style="edgeLabel;html=1;align=center;verticalAlign=middle;resizable=0;points=[];fontSize=14;fontStyle=1" connectable="0" vertex="1" parent="RqQAhdTTkDdNJMIUkBv4-1">
          <mxGeometry x="0.0202" y="1" relative="1" as="geometry">
            <mxPoint x="1" as="offset" />
          </mxGeometry>
        </mxCell>
        <mxCell id="RqQAhdTTkDdNJMIUkBv4-3" value="Jellyfin&#xa;jellyfin.mydomain.com&#xa;Port 8096" style="swimlane;startSize=50;" vertex="1" parent="1">
          <mxGeometry x="39" y="610" width="200" height="200" as="geometry" />
        </mxCell>
        <mxCell id="RqQAhdTTkDdNJMIUkBv4-4" style="edgeStyle=none;curved=1;rounded=0;orthogonalLoop=1;jettySize=auto;html=1;exitX=0.5;exitY=0;exitDx=0;exitDy=0;entryX=0.5;entryY=1;entryDx=0;entryDy=0;fontSize=12;startSize=8;endSize=8;startArrow=classic;startFill=0;endArrow=none;" edge="1" parent="1" source="RqQAhdTTkDdNJMIUkBv4-6" target="RqQAhdTTkDdNJMIUkBv4-10">
          <mxGeometry relative="1" as="geometry" />
        </mxCell>
        <mxCell id="RqQAhdTTkDdNJMIUkBv4-5" value="nextcloud.mydomain.com" style="edgeLabel;html=1;align=center;verticalAlign=middle;resizable=0;points=[];fontSize=14;fontStyle=1" connectable="0" vertex="1" parent="RqQAhdTTkDdNJMIUkBv4-4">
          <mxGeometry x="0.198" y="1" relative="1" as="geometry">
            <mxPoint as="offset" />
          </mxGeometry>
        </mxCell>
        <mxCell id="RqQAhdTTkDdNJMIUkBv4-6" value="Nextcloud&#xa;nextcloud.mydomain.com&#xa;Port 80" style="swimlane;startSize=50;" vertex="1" parent="1">
          <mxGeometry x="312.5" y="610" width="200" height="200" as="geometry" />
        </mxCell>
        <mxCell id="RqQAhdTTkDdNJMIUkBv4-7" style="edgeStyle=none;curved=1;rounded=0;orthogonalLoop=1;jettySize=auto;html=1;exitX=0.5;exitY=0;exitDx=0;exitDy=0;entryX=1;entryY=0.75;entryDx=0;entryDy=0;fontSize=12;startSize=8;endSize=8;startArrow=classic;startFill=0;endArrow=none;" edge="1" parent="1" source="RqQAhdTTkDdNJMIUkBv4-9" target="RqQAhdTTkDdNJMIUkBv4-10">
          <mxGeometry relative="1" as="geometry" />
        </mxCell>
        <mxCell id="RqQAhdTTkDdNJMIUkBv4-8" value="&lt;font&gt;portainer.mydomain.com&lt;/font&gt;" style="edgeLabel;html=1;align=center;verticalAlign=middle;resizable=0;points=[];fontSize=14;fontStyle=1" connectable="0" vertex="1" parent="RqQAhdTTkDdNJMIUkBv4-7">
          <mxGeometry x="0.0293" y="4" relative="1" as="geometry">
            <mxPoint as="offset" />
          </mxGeometry>
        </mxCell>
        <mxCell id="RqQAhdTTkDdNJMIUkBv4-9" value="Portainer&#xa;portainer.mydomain.com&#xa;Port 9000" style="swimlane;startSize=50;" vertex="1" parent="1">
          <mxGeometry x="589" y="610" width="200" height="200" as="geometry" />
        </mxCell>
        <mxCell id="RqQAhdTTkDdNJMIUkBv4-10" value="Traefik&#xa;mydomain.com" style="swimlane;startSize=50;" vertex="1" parent="1">
          <mxGeometry x="314" y="310" width="200" height="200" as="geometry" />
        </mxCell>
        <mxCell id="RqQAhdTTkDdNJMIUkBv4-11" value="" style="swimlane;startSize=0;labelPosition=left;verticalLabelPosition=middle;align=right;verticalAlign=middle;" vertex="1" parent="1">
          <mxGeometry x="20" y="260" width="790" height="610" as="geometry" />
        </mxCell>
        <mxCell id="RqQAhdTTkDdNJMIUkBv4-12" value="" style="shape=image;html=1;verticalAlign=top;verticalLabelPosition=bottom;labelBackgroundColor=#ffffff;imageAspect=0;aspect=fixed;image=https://cdn2.iconfinder.com/data/icons/boxicons-logos/24/bxl-docker-128.png" vertex="1" parent="RqQAhdTTkDdNJMIUkBv4-11">
          <mxGeometry x="680" y="10" width="108" height="108" as="geometry" />
        </mxCell>
      </root>
    </mxGraphModel>
  </diagram>
</mxfile>
